<svg xmlns="http://www.w3.org/2000/svg" version="1.1" xmlns:xlink="http://www.w3.org/1999/xlink" width="36" height="36"><svg width="36" height="36" viewBox="0 0 36 36" fill="none" xmlns="http://www.w3.org/2000/svg">
<rect width="36" height="36" rx="8" fill="#D9D9D9"></rect>
<path d="M9.216 13.4L11.652 20.984H11.676L14.124 13.4H17.1V13.688C15.972 13.688 15.816 13.904 15.816 14.636V21.764C15.816 22.496 15.972 22.712 17.1 22.712V23H13.188V22.712C14.304 22.712 14.46 22.496 14.46 21.764V14.096H14.424L11.496 23.24H10.956L8.04 14.216H8.004V21.764C8.004 22.496 8.172 22.712 9.288 22.712V23H6.228V22.712C7.344 22.712 7.5 22.496 7.5 21.764V14.636C7.5 13.904 7.344 13.688 6.228 13.688V13.4H9.216ZM18.8203 21.764V14.636C18.8203 13.904 18.6643 13.688 17.5483 13.688V13.4H21.4603V13.688C20.3323 13.688 20.1763 13.904 20.1763 14.636V21.764C20.1763 22.496 20.3323 22.712 21.4603 22.712V23H17.5483V22.712C18.6643 22.712 18.8203 22.496 18.8203 21.764ZM21.7003 17.288L24.8203 21.932C25.2763 22.604 25.6363 22.7 26.2483 22.7V23H22.4803V22.712C23.5843 22.712 23.6803 22.568 23.2003 21.848L20.5123 17.912L22.9603 14.78C23.2483 14.42 23.3803 14.192 23.3803 14.036C23.3803 13.784 23.1763 13.688 22.4083 13.688V13.4H25.8283V13.688C25.0483 13.688 24.6283 13.76 24.1363 14.348L21.7003 17.288ZM27.832 21.764V14.636C27.832 13.904 27.676 13.688 26.56 13.688V13.4H30.472V13.688C29.344 13.688 29.188 13.904 29.188 14.636V21.764C29.188 22.496 29.344 22.712 30.472 22.712V23H26.56V22.712C27.676 22.712 27.832 22.496 27.832 21.764Z" fill="#232323"></path>
</svg><style>@media (prefers-color-scheme: light) { :root { filter: none; } }
@media (prefers-color-scheme: dark) { :root { filter: none; } }
</style></svg>